G04 MADE WITH FRITZING*
G04 WWW.FRITZING.ORG*
G04 DOUBLE SIDED*
G04 HOLES PLATED*
G04 CONTOUR ON CENTER OF CONTOUR VECTOR*
%ASAXBY*%
%FSLAX23Y23*%
%MOIN*%
%OFA0B0*%
%SFA1.0B1.0*%
%ADD10C,0.062992*%
%ADD11C,0.039370*%
%ADD12C,0.074000*%
%ADD13C,0.075000*%
%ADD14C,0.071000*%
%ADD15C,0.070972*%
%ADD16R,0.062992X0.062992*%
%ADD17C,0.024000*%
%LNCOPPER0*%
G90*
G70*
G54D10*
X607Y1305D03*
X307Y1105D03*
X307Y1405D03*
X307Y1205D03*
X307Y1305D03*
X607Y105D03*
X607Y405D03*
X607Y505D03*
X607Y1105D03*
X1207Y205D03*
X1207Y305D03*
X1207Y405D03*
X1207Y505D03*
X1207Y805D03*
X1207Y105D03*
X1207Y905D03*
X1207Y1205D03*
X1207Y1305D03*
X1607Y2005D03*
X1307Y2005D03*
X1207Y2005D03*
X1007Y2005D03*
X607Y305D03*
G54D11*
X907Y1805D03*
X1107Y705D03*
G54D12*
X549Y1805D03*
X707Y1805D03*
G54D13*
X1407Y205D03*
X1807Y205D03*
X307Y1605D03*
X707Y1605D03*
X1407Y905D03*
X1807Y905D03*
X707Y1505D03*
X307Y1505D03*
X1407Y1205D03*
X1807Y1205D03*
X1407Y1505D03*
X1807Y1505D03*
X1405Y1805D03*
X1805Y1805D03*
G54D10*
X1407Y706D03*
X1407Y805D03*
X1407Y1006D03*
X1407Y1105D03*
X1407Y1306D03*
X1407Y1405D03*
X1407Y1606D03*
X1407Y1705D03*
G54D13*
X1807Y605D03*
X1807Y349D03*
X1630Y605D03*
X1630Y349D03*
G54D14*
X307Y1005D03*
X307Y905D03*
G54D15*
X307Y805D03*
X307Y705D03*
G54D16*
X1407Y706D03*
X1407Y1006D03*
X1407Y1306D03*
X1407Y1606D03*
G54D17*
X707Y305D02*
X638Y305D01*
D02*
X707Y1476D02*
X707Y305D01*
D02*
X707Y1605D02*
X707Y1533D01*
D02*
X307Y1476D02*
X307Y1436D01*
D02*
X407Y1005D02*
X407Y105D01*
D02*
X407Y105D02*
X576Y105D01*
D02*
X337Y1005D02*
X407Y1005D01*
D02*
X1607Y2105D02*
X1607Y2036D01*
D02*
X407Y2105D02*
X1607Y2105D01*
D02*
X407Y105D02*
X407Y2105D01*
D02*
X576Y105D02*
X407Y105D01*
D02*
X1307Y1305D02*
X1238Y1305D01*
D02*
X1307Y1005D02*
X1307Y1305D01*
D02*
X1380Y1006D02*
X1307Y1005D01*
D02*
X1307Y1805D02*
X1307Y1974D01*
D02*
X926Y1805D02*
X1307Y1805D01*
D02*
X707Y305D02*
X638Y305D01*
D02*
X707Y605D02*
X707Y305D01*
D02*
X1601Y605D02*
X707Y605D01*
D02*
X1107Y1205D02*
X1176Y1205D01*
D02*
X1107Y724D02*
X1107Y1205D01*
G04 End of Copper0*
M02*