; NON-PLATED HOLES START AT T1
; THROUGH (PLATED) HOLES START AT T100
M48
INCH
T100C0.038972
T101C0.039370
T102C0.035000
T103C0.035433
T104C0.039000
T105C0.015748
T106C0.031497
%
T100
X003067Y007047
X003067Y008047
T101
X012067Y012047
X006067Y005047
X012067Y001047
X003067Y011047
X003067Y014047
X012067Y020047
X006067Y004047
X003067Y013047
X006067Y003047
X013067Y020047
X012067Y004047
X016067Y020047
X006067Y001047
X012067Y013047
X010067Y020047
X012067Y005047
X006067Y011047
X012067Y008047
X012067Y003047
X012067Y009047
X003067Y012047
X006067Y013047
X012067Y002047
T102
X018067Y009047
X014052Y018047
X007067Y015047
X018067Y012047
X016296Y003488
X014067Y015047
X014067Y012047
X003067Y015047
X016296Y006047
X003067Y016047
X014067Y002047
X018067Y002047
X018067Y003488
X014067Y009047
X018067Y006047
X018052Y018047
X007067Y016047
X018067Y015047
T103
X005492Y018047
X007067Y018047
T104
X003067Y009047
X003067Y010047
T105
X011067Y007047
X009067Y018047
T106
X014067Y010063
X014067Y013062
X014067Y014047
X014067Y011047
X014067Y016062
X014067Y007063
X014067Y008047
X014067Y017047
T00
M30
